<svg width="129" height="128" viewBox="0 0 129 128" fill="none" xmlns="http://www.w3.org/2000/svg">
<rect width="128" height="128" transform="translate(0.5)" fill="white"/>
<path d="M55.2493 82.2078C56.1984 82.2079 56.8524 83.1583 56.511 84.0439C54.5924 89.0188 49.4182 102.417 49.1385 102.942C48.7959 103.583 47.5677 106.786 44.2827 106.786C32.5705 106.786 21.7715 104.103 23.4526 95.1525C24.2444 90.937 33.8246 82.207 48.4433 82.2085L55.2493 82.2078Z" fill="#3F88C5"/>
<path d="M74.3519 21.2129C107.483 21.2129 108.931 41.3293 104.866 53.6745C99.1357 71.0755 78.5436 76.3613 70.2057 76.1359H47.896C32.5249 76.3839 24.9873 81.8101 22.5195 85.7266L41.6366 38.6251C47.7462 25.124 54.6449 21.2129 74.3519 21.2129Z" fill="#3F88C5"/>
</svg>
