<svg width="16" height="16" viewBox="0 0 16 16" fill="none" xmlns="http://www.w3.org/2000/svg">
<rect width="16" height="16" fill="white"/>
<path d="M6.84318 10.2767C6.96181 10.2767 7.04357 10.3955 7.00088 10.5062C6.76106 11.1281 6.11429 12.8029 6.07932 12.8684C6.0365 12.9486 5.88298 13.349 5.47235 13.349C4.00832 13.349 2.65844 13.0135 2.86859 11.8948C2.96757 11.3679 4.16508 10.2766 5.99242 10.2768L6.84318 10.2767Z" fill="#3F88C5"/>
<path d="M9.231 2.65234C13.3723 2.65234 13.5534 5.1669 13.0452 6.71004C12.329 8.88517 9.75496 9.54589 8.71272 9.51772H5.92401C4.00262 9.54871 3.06043 10.227 2.75195 10.7166L5.14159 4.82887C5.90529 3.14124 6.76763 2.65234 9.231 2.65234Z" fill="#3F88C5"/>
</svg>
