<svg width="32" height="32" viewBox="0 0 32 32" fill="none" xmlns="http://www.w3.org/2000/svg">
<rect width="32" height="32" fill="white"/>
<path d="M13.6883 20.5515C13.9256 20.5515 14.0891 20.7891 14.0037 21.0105C13.5241 22.2542 12.2305 25.6039 12.1606 25.7349C12.075 25.8952 11.7679 26.696 10.9466 26.696C8.01859 26.696 5.31884 26.0251 5.73913 23.7876C5.93708 22.7338 8.33212 20.5513 11.9868 20.5516L13.6883 20.5515Z" fill="#3F88C5"/>
<path d="M18.464 5.30273C26.7466 5.30273 27.1087 10.3318 26.0924 13.4181C24.6599 17.7684 19.5119 19.0898 17.4274 19.0335H11.85C8.0072 19.0955 6.12281 20.452 5.50586 21.4312L10.2851 9.65579C11.8125 6.28052 13.5372 5.30273 18.464 5.30273Z" fill="#3F88C5"/>
</svg>
