<svg width="512" height="512" viewBox="0 0 512 512" fill="none" xmlns="http://www.w3.org/2000/svg">
<rect width="512" height="512" fill="white"/>
<path d="M219.001 328.833C222.797 328.833 225.414 332.635 224.048 336.177C216.374 356.077 195.677 409.671 194.558 411.768C193.187 414.332 188.275 427.145 175.135 427.146C128.286 427.146 85.0898 416.412 91.8143 380.612C94.9816 363.75 133.302 328.83 191.777 328.836L219.001 328.833Z" fill="#3F88C5"/>
<path d="M295.412 84.8535C427.934 84.8535 433.727 165.319 417.467 214.7C394.547 284.304 312.178 305.447 278.827 304.546H189.588C128.103 305.537 97.9533 327.242 88.082 342.908L164.55 154.502C188.989 100.498 216.584 84.8535 295.412 84.8535Z" fill="#3F88C5"/>
</svg>
