<svg width="64" height="64" viewBox="0 0 64 64" fill="none" xmlns="http://www.w3.org/2000/svg">
<rect width="64" height="64" fill="white"/>
<path d="M27.3747 41.1049C27.8492 41.1049 28.1762 41.5801 28.0055 42.0229C27.0462 44.5104 24.4591 51.2097 24.3192 51.4717C24.1479 51.7923 23.5339 53.3939 21.8913 53.3939C16.0352 53.3939 10.6357 52.0522 11.4763 47.5772C11.8722 45.4695 16.6623 41.1045 23.9716 41.1052L27.3747 41.1049Z" fill="#3F88C5"/>
<path d="M36.926 10.6074C53.4913 10.6074 54.2154 20.6656 52.1829 26.8382C49.3178 35.5387 39.0218 38.1816 34.8528 38.0689H23.698C16.0124 38.1929 12.2437 40.906 11.0098 42.8643L20.5683 19.3135C23.6231 12.563 27.0725 10.6074 36.926 10.6074Z" fill="#3F88C5"/>
</svg>
