<svg width="198" height="50" viewBox="0 0 198 50" fill="none" xmlns="http://www.w3.org/2000/svg">
<path d="M21.3904 32.037C21.7685 32.0371 22.0291 32.4158 21.8931 32.7686C21.1287 34.7508 19.067 40.0893 18.9556 40.2981C18.8191 40.5535 18.3298 41.8298 17.0209 41.8299C12.3543 41.8299 8.05155 40.7607 8.72138 37.1947C9.03687 35.5151 12.854 32.0367 18.6786 32.0373L21.3904 32.037Z" fill="#3F88C5"/>
<path d="M29.0016 7.73438C42.202 7.73438 42.7791 15.7495 41.1594 20.6683C38.8764 27.6015 30.6717 29.7076 27.3495 29.6178H18.4605C12.3361 29.7166 9.33288 31.8786 8.34961 33.4391L15.9666 14.6721C18.4009 9.29272 21.1496 7.73438 29.0016 7.73438Z" fill="#3F88C5"/>
<path d="M59.2458 35.2812V14.1632H67.4819C69.3322 14.1632 70.9111 14.4548 72.2184 15.0381C73.5257 15.6213 74.5313 16.466 75.2352 17.5722C75.9392 18.6784 76.2911 19.9958 76.2911 21.5243C76.2911 23.0529 75.9392 24.3702 75.2352 25.4764C74.5313 26.5625 73.5257 27.4072 72.2184 28.0106C70.9111 28.5939 69.3322 28.8855 67.4819 28.8855H60.9051L62.2627 27.4676V35.2812H59.2458ZM62.2627 27.7692L60.9051 26.2608H67.3914C69.3222 26.2608 70.7803 25.8485 71.7658 25.0239C72.7715 24.1993 73.2743 23.0328 73.2743 21.5243C73.2743 20.0159 72.7715 18.8494 71.7658 18.0248C70.7803 17.2001 69.3222 16.7878 67.3914 16.7878H60.9051L62.2627 15.2794V27.7692ZM86.487 35.4623C84.878 35.4623 83.45 35.1103 82.203 34.4064C80.9561 33.7024 79.9705 32.737 79.2465 31.5102C78.5225 30.2632 78.1604 28.8553 78.1604 27.2865C78.1604 25.6977 78.5225 24.2898 79.2465 23.0629C79.9705 21.8361 80.9561 20.8807 82.203 20.1969C83.45 19.493 84.878 19.141 86.487 19.141C88.0759 19.141 89.4938 19.493 90.7408 20.1969C92.0079 20.8807 92.9934 21.8361 93.6973 23.0629C94.4214 24.2697 94.7834 25.6776 94.7834 27.2865C94.7834 28.8754 94.4214 30.2833 93.6973 31.5102C92.9934 32.737 92.0079 33.7024 90.7408 34.4064C89.4938 35.1103 88.0759 35.4623 86.487 35.4623ZM86.487 32.9281C87.5127 32.9281 88.4278 32.6968 89.2323 32.2342C90.0569 31.7716 90.7005 31.118 91.1631 30.2732C91.6257 29.4084 91.857 28.4128 91.857 27.2865C91.857 26.1401 91.6257 25.1546 91.1631 24.33C90.7005 23.4853 90.0569 22.8316 89.2323 22.3691C88.4278 21.9065 87.5127 21.6752 86.487 21.6752C85.4612 21.6752 84.5461 21.9065 83.7416 22.3691C82.9371 22.8316 82.2935 23.4853 81.8108 24.33C81.3281 25.1546 81.0868 26.1401 81.0868 27.2865C81.0868 28.4128 81.3281 29.4084 81.8108 30.2732C82.2935 31.118 82.9371 31.7716 83.7416 32.2342C84.5461 32.6968 85.4612 32.9281 86.487 32.9281ZM100.539 31.4197L100.599 27.7089L109.8 19.2918H113.3L106.24 26.2306L104.672 27.5581L100.539 31.4197ZM98.1854 35.2812V12.8961H101.082V35.2812H98.1854ZM110.404 35.2812L104.129 27.4977L105.999 25.1747L113.964 35.2812H110.404ZM122.644 35.4623C120.934 35.4623 119.426 35.1103 118.119 34.4064C116.831 33.7024 115.826 32.737 115.102 31.5102C114.398 30.2833 114.046 28.8754 114.046 27.2865C114.046 25.6977 114.388 24.2898 115.072 23.0629C115.776 21.8361 116.731 20.8807 117.938 20.1969C119.164 19.493 120.542 19.141 122.071 19.141C123.619 19.141 124.987 19.4829 126.174 20.1667C127.36 20.8506 128.285 21.816 128.949 23.0629C129.633 24.2898 129.975 25.7278 129.975 27.3771C129.975 27.4977 129.965 27.6385 129.945 27.7994C129.945 27.9603 129.935 28.1112 129.915 28.2519H116.308V26.1703H128.406L127.23 26.8944C127.25 25.8686 127.038 24.9535 126.596 24.149C126.154 23.3445 125.54 22.721 124.756 22.2785C123.991 21.816 123.096 21.5847 122.071 21.5847C121.065 21.5847 120.17 21.816 119.386 22.2785C118.601 22.721 117.988 23.3546 117.545 24.1792C117.103 24.9837 116.882 25.9088 116.882 26.9547V27.4374C116.882 28.5034 117.123 29.4587 117.606 30.3034C118.109 31.128 118.802 31.7716 119.687 32.2342C120.572 32.6968 121.588 32.9281 122.734 32.9281C123.68 32.9281 124.534 32.7672 125.299 32.4454C126.083 32.1236 126.767 31.6409 127.35 30.9973L128.949 32.8678C128.225 33.7125 127.32 34.3561 126.234 34.7986C125.168 35.241 123.971 35.4623 122.644 35.4623ZM133.393 35.2812V19.2918H136.169V23.6361L135.897 22.5501C136.34 21.4439 137.084 20.5992 138.13 20.0159C139.175 19.4326 140.463 19.141 141.991 19.141V21.9467C141.871 21.9266 141.75 21.9165 141.629 21.9165C141.529 21.9165 141.428 21.9165 141.328 21.9165C139.779 21.9165 138.552 22.3791 137.647 23.3043C136.742 24.2295 136.289 25.5669 136.289 27.3167V35.2812H133.393ZM153.085 35.2812V14.1632H161.321C163.171 14.1632 164.75 14.4548 166.057 15.0381C167.364 15.6213 168.37 16.466 169.074 17.5722C169.778 18.6784 170.13 19.9958 170.13 21.5243C170.13 23.0529 169.778 24.3702 169.074 25.4764C168.37 26.5625 167.364 27.4072 166.057 28.0106C164.75 28.5939 163.171 28.8855 161.321 28.8855H154.744L156.101 27.4676V35.2812H153.085ZM156.101 27.7692L154.744 26.2608H161.23C163.161 26.2608 164.619 25.8485 165.605 25.0239C166.61 24.1993 167.113 23.0328 167.113 21.5243C167.113 20.0159 166.61 18.8494 165.605 18.0248C164.619 17.2001 163.161 16.7878 161.23 16.7878H154.744L156.101 15.2794V27.7692ZM183.315 35.2812V31.9024L183.164 31.2688V25.5066C183.164 24.2797 182.802 23.3344 182.078 22.6707C181.374 21.9869 180.308 21.645 178.88 21.645C177.934 21.645 177.009 21.8059 176.104 22.1277C175.199 22.4294 174.435 22.8417 173.811 23.3646L172.605 21.1925C173.429 20.5288 174.415 20.0259 175.561 19.684C176.728 19.322 177.945 19.141 179.212 19.141C181.404 19.141 183.093 19.674 184.28 20.7399C185.467 21.8059 186.06 23.435 186.06 25.6273V35.2812H183.315ZM178.065 35.4623C176.879 35.4623 175.833 35.2611 174.928 34.8589C174.043 34.4566 173.359 33.9035 172.876 33.1996C172.393 32.4756 172.152 31.661 172.152 30.7559C172.152 29.8911 172.353 29.1067 172.756 28.4028C173.178 27.6989 173.852 27.1357 174.777 26.7133C175.722 26.291 176.989 26.0798 178.578 26.0798H183.646V28.1614H178.699C177.251 28.1614 176.275 28.4028 175.772 28.8855C175.27 29.3682 175.018 29.9514 175.018 30.6353C175.018 31.4197 175.33 32.0532 175.953 32.5359C176.577 32.9985 177.442 33.2298 178.548 33.2298C179.634 33.2298 180.579 32.9884 181.384 32.5057C182.208 32.023 182.802 31.3191 183.164 30.3939L183.737 32.3851C183.355 33.3303 182.681 34.0846 181.716 34.6477C180.75 35.1907 179.533 35.4623 178.065 35.4623ZM190.816 35.2812V12.8961H193.712V35.2812H190.816Z" fill="black"/>
</svg>
