<svg width="190" height="50" viewBox="0 0 190 50" fill="none" xmlns="http://www.w3.org/2000/svg">
<path d="M21.3904 32.0371C21.7685 32.0371 22.0291 32.4158 21.8931 32.7686C21.1287 34.7508 19.067 40.0893 18.9556 40.2981C18.8191 40.5535 18.3298 41.8298 17.0209 41.8299C12.3543 41.8299 8.05155 40.7607 8.72138 37.1947C9.03687 35.5151 12.854 32.0367 18.6786 32.0373L21.3904 32.0371Z" fill="#3F88C5"/>
<path d="M29.0016 7.73438C42.202 7.73438 42.7791 15.7495 41.1594 20.6683C38.8764 27.6015 30.6717 29.7076 27.3495 29.6178H18.4605C12.3361 29.7166 9.33288 31.8786 8.34961 33.4391L15.9666 14.6721C18.4009 9.29272 21.1496 7.73438 29.0016 7.73438Z" fill="#3F88C5"/>
<path d="M59.2458 35.2812V14.1632H67.4819C69.3322 14.1632 70.9111 14.4548 72.2184 15.0381C73.5257 15.6213 74.5313 16.466 75.2352 17.5722C75.9392 18.6784 76.2911 19.9958 76.2911 21.5243C76.2911 23.0529 75.9392 24.3702 75.2352 25.4764C74.5313 26.5625 73.5257 27.4072 72.2184 28.0106C70.9111 28.5939 69.3322 28.8855 67.4819 28.8855H60.9051L62.2627 27.4676V35.2812H59.2458ZM62.2627 27.7692L60.9051 26.2608H67.3914C69.3222 26.2608 70.7803 25.8485 71.7658 25.0239C72.7715 24.1993 73.2743 23.0328 73.2743 21.5243C73.2743 20.0159 72.7715 18.8494 71.7658 18.0248C70.7803 17.2001 69.3222 16.7878 67.3914 16.7878H60.9051L62.2627 15.2794V27.7692ZM86.487 35.4623C84.878 35.4623 83.45 35.1103 82.203 34.4064C80.9561 33.7024 79.9705 32.737 79.2465 31.5102C78.5225 30.2632 78.1604 28.8553 78.1604 27.2865C78.1604 25.6977 78.5225 24.2898 79.2465 23.0629C79.9705 21.8361 80.9561 20.8807 82.203 20.1969C83.45 19.493 84.878 19.141 86.487 19.141C88.0759 19.141 89.4938 19.493 90.7408 20.1969C92.0079 20.8807 92.9934 21.8361 93.6973 23.0629C94.4214 24.2697 94.7834 25.6776 94.7834 27.2865C94.7834 28.8754 94.4214 30.2833 93.6973 31.5102C92.9934 32.737 92.0079 33.7024 90.7408 34.4064C89.4938 35.1103 88.0759 35.4623 86.487 35.4623ZM86.487 32.9281C87.5127 32.9281 88.4278 32.6968 89.2323 32.2342C90.0569 31.7716 90.7005 31.118 91.1631 30.2732C91.6257 29.4084 91.857 28.4128 91.857 27.2865C91.857 26.1401 91.6257 25.1546 91.1631 24.33C90.7005 23.4853 90.0569 22.8316 89.2323 22.3691C88.4278 21.9065 87.5127 21.6752 86.487 21.6752C85.4612 21.6752 84.5461 21.9065 83.7416 22.3691C82.9371 22.8316 82.2935 23.4853 81.8108 24.33C81.3281 25.1546 81.0868 26.1401 81.0868 27.2865C81.0868 28.4128 81.3281 29.4084 81.8108 30.2732C82.2935 31.118 82.9371 31.7716 83.7416 32.2342C84.5461 32.6968 85.4612 32.9281 86.487 32.9281ZM100.539 31.4197L100.599 27.7089L109.8 19.2918H113.3L106.24 26.2306L104.672 27.5581L100.539 31.4197ZM98.1854 35.2812V12.8961H101.082V35.2812H98.1854ZM110.404 35.2812L104.129 27.4977L105.999 25.1747L113.964 35.2812H110.404ZM122.644 35.4623C120.934 35.4623 119.426 35.1103 118.119 34.4064C116.831 33.7024 115.826 32.737 115.102 31.5102C114.398 30.2833 114.046 28.8754 114.046 27.2865C114.046 25.6977 114.388 24.2898 115.072 23.0629C115.776 21.8361 116.731 20.8807 117.938 20.1969C119.164 19.493 120.542 19.141 122.071 19.141C123.619 19.141 124.987 19.4829 126.174 20.1667C127.36 20.8506 128.285 21.816 128.949 23.0629C129.633 24.2898 129.975 25.7278 129.975 27.3771C129.975 27.4977 129.965 27.6385 129.945 27.7994C129.945 27.9603 129.935 28.1112 129.915 28.2519H116.308V26.1703H128.406L127.23 26.8944C127.25 25.8686 127.038 24.9535 126.596 24.149C126.154 23.3445 125.54 22.721 124.756 22.2785C123.991 21.816 123.096 21.5847 122.071 21.5847C121.065 21.5847 120.17 21.816 119.386 22.2785C118.601 22.721 117.988 23.3546 117.545 24.1792C117.103 24.9837 116.882 25.9088 116.882 26.9547V27.4374C116.882 28.5034 117.123 29.4587 117.606 30.3034C118.109 31.128 118.802 31.7716 119.687 32.2342C120.572 32.6968 121.588 32.9281 122.734 32.9281C123.68 32.9281 124.534 32.7672 125.299 32.4454C126.083 32.1236 126.767 31.6409 127.35 30.9973L128.949 32.8678C128.225 33.7125 127.32 34.3561 126.234 34.7986C125.168 35.241 123.971 35.4623 122.644 35.4623ZM133.393 35.2812V19.2918H136.169V23.6361L135.897 22.5501C136.34 21.4439 137.084 20.5992 138.13 20.0159C139.175 19.4326 140.463 19.141 141.991 19.141V21.9467C141.871 21.9266 141.75 21.9165 141.629 21.9165C141.529 21.9165 141.428 21.9165 141.328 21.9165C139.779 21.9165 138.552 22.3791 137.647 23.3043C136.742 24.2295 136.289 25.5669 136.289 27.3167V35.2812H133.393ZM145.232 35.2812V14.1632H153.469C155.319 14.1632 156.898 14.4548 158.205 15.0381C159.512 15.6213 160.518 16.466 161.222 17.5722C161.926 18.6784 162.278 19.9958 162.278 21.5243C162.278 23.0529 161.926 24.3702 161.222 25.4764C160.518 26.5625 159.512 27.4072 158.205 28.0106C156.898 28.5939 155.319 28.8855 153.469 28.8855H146.892L148.249 27.4676V35.2812H145.232ZM148.249 27.7692L146.892 26.2608H153.378C155.309 26.2608 156.767 25.8485 157.752 25.0239C158.758 24.1993 159.261 23.0328 159.261 21.5243C159.261 20.0159 158.758 18.8494 157.752 18.0248C156.767 17.2001 155.309 16.7878 153.378 16.7878H146.892L148.249 15.2794V27.7692ZM175.462 35.2812V31.9024L175.312 31.2688V25.5066C175.312 24.2797 174.95 23.3344 174.226 22.6707C173.522 21.9869 172.456 21.645 171.028 21.645C170.082 21.645 169.157 21.8059 168.252 22.1277C167.347 22.4294 166.583 22.8417 165.959 23.3646L164.753 21.1925C165.577 20.5288 166.563 20.0259 167.709 19.684C168.876 19.322 170.092 19.141 171.36 19.141C173.552 19.141 175.241 19.674 176.428 20.7399C177.614 21.8059 178.208 23.435 178.208 25.6273V35.2812H175.462ZM170.213 35.4623C169.026 35.4623 167.981 35.2611 167.076 34.8589C166.191 34.4566 165.507 33.9035 165.024 33.1996C164.541 32.4756 164.3 31.661 164.3 30.7559C164.3 29.8911 164.501 29.1067 164.903 28.4028C165.326 27.6989 166 27.1357 166.925 26.7133C167.87 26.291 169.137 26.0798 170.726 26.0798H175.794V28.1614H170.847C169.399 28.1614 168.423 28.4028 167.92 28.8855C167.417 29.3682 167.166 29.9514 167.166 30.6353C167.166 31.4197 167.478 32.0532 168.101 32.5359C168.725 32.9985 169.59 33.2298 170.696 33.2298C171.782 33.2298 172.727 32.9884 173.532 32.5057C174.356 32.023 174.95 31.3191 175.312 30.3939L175.885 32.3851C175.503 33.3303 174.829 34.0846 173.864 34.6477C172.898 35.1907 171.681 35.4623 170.213 35.4623ZM182.964 35.2812V12.8961H185.86V35.2812H182.964Z" fill="black"/>
</svg>
