<svg width="127" height="24" viewBox="0 0 127 24" fill="none" xmlns="http://www.w3.org/2000/svg">
<path d="M0.167712 23V1.88192H8.40376C10.2541 1.88192 11.8329 2.17355 13.1402 2.75681C14.4476 3.34007 15.4532 4.18479 16.1571 5.29098C16.8611 6.39717 17.213 7.71453 17.213 9.24308C17.213 10.7716 16.8611 12.089 16.1571 13.1952C15.4532 14.2812 14.4476 15.126 13.1402 15.7293C11.8329 16.3126 10.2541 16.6042 8.40376 16.6042H1.82699L3.18458 15.1863V23H0.167712ZM3.18458 15.488L1.82699 13.9796H8.31326C10.2441 13.9796 11.7022 13.5673 12.6877 12.7426C13.6933 11.918 14.1962 10.7515 14.1962 9.24308C14.1962 7.73464 13.6933 6.56812 12.6877 5.74351C11.7022 4.9189 10.2441 4.50659 8.31326 4.50659H1.82699L3.18458 2.99816V15.488ZM27.4089 23.181C25.7999 23.181 24.3719 22.829 23.1249 22.1251C21.8779 21.4212 20.8924 20.4558 20.1684 19.2289C19.4443 17.9819 19.0823 16.5741 19.0823 15.0053C19.0823 13.4164 19.4443 12.0085 20.1684 10.7817C20.8924 9.55482 21.8779 8.59948 23.1249 7.91566C24.3719 7.21172 25.7999 6.85975 27.4089 6.85975C28.9977 6.85975 30.4157 7.21172 31.6626 7.91566C32.9297 8.59948 33.9152 9.55482 34.6192 10.7817C35.3432 11.9884 35.7052 13.3963 35.7052 15.0053C35.7052 16.5942 35.3432 18.0021 34.6192 19.2289C33.9152 20.4558 32.9297 21.4212 31.6626 22.1251C30.4157 22.829 28.9977 23.181 27.4089 23.181ZM27.4089 20.6468C28.4346 20.6468 29.3497 20.4155 30.1542 19.953C30.9788 19.4904 31.6224 18.8367 32.085 17.992C32.5476 17.1272 32.7789 16.1316 32.7789 15.0053C32.7789 13.8589 32.5476 12.8734 32.085 12.0488C31.6224 11.204 30.9788 10.5504 30.1542 10.0878C29.3497 9.62521 28.4346 9.39392 27.4089 9.39392C26.3831 9.39392 25.468 9.62521 24.6635 10.0878C23.859 10.5504 23.2154 11.204 22.7327 12.0488C22.25 12.8734 22.0087 13.8589 22.0087 15.0053C22.0087 16.1316 22.25 17.1272 22.7327 17.992C23.2154 18.8367 23.859 19.4904 24.6635 19.953C25.468 20.4155 26.3831 20.6468 27.4089 20.6468ZM41.4604 19.1384L41.5207 15.4277L50.7222 7.01059H54.2218L47.1623 13.9494L45.5935 15.2768L41.4604 19.1384ZM39.1072 23V0.614832H42.0034V23H39.1072ZM51.3256 23L45.0505 15.2165L46.9209 12.8935L54.8855 23H51.3256ZM63.5658 23.181C61.8562 23.181 60.3478 22.829 59.0405 22.1251C57.7533 21.4212 56.7477 20.4558 56.0236 19.2289C55.3197 18.0021 54.9677 16.5942 54.9677 15.0053C54.9677 13.4164 55.3096 12.0085 55.9935 10.7817C56.6974 9.55482 57.6527 8.59948 58.8595 7.91566C60.0863 7.21172 61.464 6.85975 62.9926 6.85975C64.5412 6.85975 65.9089 7.20166 67.0955 7.88549C68.2822 8.56931 69.2073 9.53471 69.8711 10.7817C70.5549 12.0085 70.8968 13.4466 70.8968 15.0958C70.8968 15.2165 70.8867 15.3573 70.8666 15.5182C70.8666 15.6791 70.8566 15.8299 70.8364 15.9707H57.2304V13.8891H69.328L68.1514 14.6131C68.1715 13.5874 67.9604 12.6723 67.5179 11.8678C67.0754 11.0633 66.462 10.4398 65.6776 9.99729C64.9133 9.53471 64.0183 9.30341 62.9926 9.30341C61.987 9.30341 61.092 9.53471 60.3076 9.99729C59.5232 10.4398 58.9098 11.0733 58.4673 11.8979C58.0248 12.7024 57.8036 13.6276 57.8036 14.6734V15.1561C57.8036 16.2221 58.0449 17.1774 58.5276 18.0222C59.0304 18.8468 59.7243 19.4904 60.6093 19.953C61.4942 20.4155 62.5099 20.6468 63.6563 20.6468C64.6016 20.6468 65.4564 20.4859 66.2206 20.1641C67.005 19.8423 67.6888 19.3596 68.2721 18.716L69.8711 20.5865C69.147 21.4312 68.2419 22.0748 67.1559 22.5173C66.0899 22.9598 64.8932 23.181 63.5658 23.181ZM74.315 23V7.01059H77.0906V11.3549L76.819 10.2688C77.2615 9.16263 78.0057 8.3179 79.0515 7.73464C80.0974 7.15138 81.3846 6.85975 82.9131 6.85975V9.66544C82.7924 9.64533 82.6718 9.63527 82.5511 9.63527C82.4505 9.63527 82.35 9.63527 82.2494 9.63527C80.7007 9.63527 79.4739 10.0979 78.5688 11.023C77.6638 11.9482 77.2112 13.2857 77.2112 15.0355V23H74.315ZM86.1544 23V1.88192H94.3904C96.2408 1.88192 97.8196 2.17355 99.1269 2.75681C100.434 3.34007 101.44 4.18479 102.144 5.29098C102.848 6.39717 103.2 7.71453 103.2 9.24308C103.2 10.7716 102.848 12.089 102.144 13.1952C101.44 14.2812 100.434 15.126 99.1269 15.7293C97.8196 16.3126 96.2408 16.6042 94.3904 16.6042H87.8136L89.1712 15.1863V23H86.1544ZM89.1712 15.488L87.8136 13.9796H94.2999C96.2307 13.9796 97.6889 13.5673 98.6744 12.7426C99.68 11.918 100.183 10.7515 100.183 9.24308C100.183 7.73464 99.68 6.56812 98.6744 5.74351C97.6889 4.9189 96.2307 4.50659 94.2999 4.50659H87.8136L89.1712 2.99816V15.488ZM116.384 23V19.6211L116.233 18.9876V13.2253C116.233 11.9985 115.871 11.0532 115.147 10.3895C114.443 9.70566 113.378 9.36375 111.95 9.36375C111.004 9.36375 110.079 9.52465 109.174 9.84645C108.269 10.1481 107.505 10.5604 106.881 11.0834L105.674 8.91122C106.499 8.24751 107.485 7.7447 108.631 7.40279C109.798 7.04076 111.014 6.85975 112.281 6.85975C114.474 6.85975 116.163 7.39273 117.35 8.45869C118.536 9.52465 119.13 11.1538 119.13 13.346V23H116.384ZM111.135 23.181C109.948 23.181 108.903 22.9799 107.997 22.5776C107.112 22.1754 106.429 21.6223 105.946 20.9184C105.463 20.1943 105.222 19.3798 105.222 18.4747C105.222 17.6099 105.423 16.8255 105.825 16.1215C106.248 15.4176 106.921 14.8545 107.847 14.4321C108.792 14.0097 110.059 13.7985 111.648 13.7985H116.716V15.8802H111.769C110.32 15.8802 109.345 16.1215 108.842 16.6042C108.339 17.0869 108.088 17.6702 108.088 18.354C108.088 19.1384 108.4 19.772 109.023 20.2546C109.647 20.7172 110.511 20.9485 111.618 20.9485C112.704 20.9485 113.649 20.7072 114.454 20.2245C115.278 19.7418 115.871 19.0378 116.233 18.1127L116.807 20.1038C116.425 21.0491 115.751 21.8033 114.785 22.3665C113.82 22.9095 112.603 23.181 111.135 23.181ZM123.886 23V0.614832H126.782V23H123.886Z" fill="black"/>
</svg>
