<svg width="26" height="26" viewBox="0 0 26 26" fill="none" xmlns="http://www.w3.org/2000/svg">
<path d="M13 3.54492C10.4323 3.54492 10.1101 3.55615 9.10166 3.60204C8.09518 3.64813 7.40817 3.80748 6.80704 4.04129C6.18522 4.28277 5.65775 4.6058 5.13225 5.13151C4.60636 5.65703 4.28334 6.18451 4.04107 6.80615C3.80669 7.4075 3.64715 8.09472 3.60184 9.10085C3.55674 10.1093 3.54492 10.4318 3.54492 12.9995C3.54492 15.5672 3.55635 15.8884 3.60204 16.8969C3.64833 17.9034 3.80767 18.5905 4.04127 19.1916C4.28295 19.8134 4.60597 20.3409 5.13166 20.8664C5.65696 21.3923 6.18443 21.7162 6.80585 21.9576C7.40738 22.1915 8.09459 22.3508 9.10087 22.3969C10.1093 22.4428 10.4314 22.454 12.9988 22.454C15.5666 22.454 15.8879 22.4428 16.8963 22.3969C17.9028 22.3508 18.5906 22.1915 19.1921 21.9576C19.8137 21.7162 20.3404 21.3923 20.8657 20.8664C21.3916 20.3409 21.7146 19.8134 21.9569 19.1918C22.1893 18.5905 22.3489 17.9032 22.3961 16.8971C22.4414 15.8886 22.4532 15.5672 22.4532 12.9995C22.4532 10.4318 22.4414 10.1095 22.3961 9.10104C22.3489 8.09453 22.1893 7.4075 21.9569 6.80635C21.7146 6.18451 21.3916 5.65703 20.8657 5.13151C20.3398 4.6056 19.8139 4.28257 19.1915 4.04129C18.5888 3.80748 17.9014 3.64813 16.8949 3.60204C15.8865 3.55615 15.5654 3.54492 12.997 3.54492H13ZM12.1518 5.24871C12.4036 5.24832 12.6844 5.24871 13 5.24871C15.5243 5.24871 15.8234 5.25777 16.8203 5.30307C17.7421 5.34522 18.2424 5.49926 18.5756 5.62866C19.0168 5.80003 19.3314 6.00488 19.6621 6.33579C19.993 6.66669 20.1978 6.98185 20.3696 7.42306C20.499 7.75594 20.6532 8.25624 20.6951 9.17806C20.7404 10.1747 20.7503 10.4741 20.7503 12.9973C20.7503 15.5205 20.7404 15.8199 20.6951 16.8165C20.653 17.7384 20.499 18.2387 20.3696 18.5715C20.1982 19.0128 19.993 19.3269 19.6621 19.6576C19.3312 19.9885 19.017 20.1934 18.5756 20.3648C18.2427 20.4948 17.7421 20.6484 16.8203 20.6905C15.8236 20.7358 15.5243 20.7457 13 20.7457C10.4755 20.7457 10.1763 20.7358 9.17966 20.6905C8.25787 20.648 7.75758 20.494 7.42412 20.3646C6.98292 20.1932 6.66778 19.9883 6.33688 19.6574C6.00598 19.3265 5.80114 19.0122 5.62939 18.5708C5.49998 18.2379 5.34576 17.7376 5.30381 16.8158C5.25851 15.8191 5.24945 15.5197 5.24945 12.9949C5.24945 10.4702 5.25851 10.1724 5.30381 9.17569C5.34596 8.25388 5.49998 7.75357 5.62939 7.4203C5.80075 6.97909 6.00598 6.66394 6.33688 6.33303C6.66778 6.00212 6.98292 5.79727 7.42412 5.62551C7.75739 5.49551 8.25787 5.34188 9.17966 5.29953C10.0518 5.26013 10.3898 5.24832 12.1518 5.24635V5.24871ZM18.0466 6.81856C17.4202 6.81856 16.9121 7.32615 16.9121 7.95271C16.9121 8.57907 17.4202 9.08726 18.0466 9.08726C18.6729 9.08726 19.1811 8.57907 19.1811 7.95271C19.1811 7.32635 18.6729 6.81816 18.0466 6.81816V6.81856ZM13 8.14416C10.3187 8.14416 8.14481 10.3181 8.14481 12.9995C8.14481 15.6808 10.3187 17.8538 13 17.8538C15.6812 17.8538 17.8543 15.6808 17.8543 12.9995C17.8543 10.3181 15.681 8.14416 12.9998 8.14416H13ZM13 9.84795C14.7403 9.84795 16.1514 11.2588 16.1514 12.9995C16.1514 14.7399 14.7403 16.151 13 16.151C11.2594 16.151 9.84855 14.7399 9.84855 12.9995C9.84855 11.2588 11.2594 9.84795 13 9.84795V9.84795Z" fill="black"/>
</svg>
