<svg width="26" height="26" viewBox="0 0 26 26" fill="none" xmlns="http://www.w3.org/2000/svg">
<path d="M13 3.54688C10.4323 3.54688 10.1101 3.5581 9.10166 3.604C8.09518 3.65009 7.40817 3.80944 6.80704 4.04324C6.18522 4.28472 5.65775 4.60775 5.13225 5.13347C4.60636 5.65898 4.28334 6.18647 4.04107 6.8081C3.80669 7.40945 3.64715 8.09668 3.60184 9.1028C3.55674 10.1113 3.54492 10.4337 3.54492 13.0014C3.54492 15.5691 3.55635 15.8904 3.60204 16.8989C3.64833 17.9054 3.80767 18.5924 4.04127 19.1936C4.28295 19.8154 4.60597 20.3429 5.13166 20.8684C5.65696 21.3943 6.18443 21.7181 6.80585 21.9596C7.40738 22.1934 8.09459 22.3528 9.10087 22.3988C10.1093 22.4447 10.4314 22.456 12.9988 22.456C15.5666 22.456 15.8879 22.4447 16.8963 22.3988C17.9028 22.3528 18.5906 22.1934 19.1921 21.9596C19.8137 21.7181 20.3404 21.3943 20.8657 20.8684C21.3916 20.3429 21.7146 19.8154 21.9569 19.1938C22.1893 18.5924 22.3489 17.9052 22.3961 16.8991C22.4414 15.8906 22.4532 15.5691 22.4532 13.0014C22.4532 10.4337 22.4414 10.1115 22.3961 9.103C22.3489 8.09648 22.1893 7.40945 21.9569 6.8083C21.7146 6.18647 21.3916 5.65898 20.8657 5.13347C20.3398 4.60756 19.8139 4.28453 19.1915 4.04324C18.5888 3.80944 17.9014 3.65009 16.8949 3.604C15.8865 3.5581 15.5654 3.54688 12.997 3.54688H13ZM12.1518 5.25066C12.4036 5.25027 12.6844 5.25066 13 5.25066C15.5243 5.25066 15.8234 5.25972 16.8203 5.30503C17.7421 5.34718 18.2424 5.50121 18.5756 5.63062C19.0168 5.80198 19.3314 6.00683 19.6621 6.33774C19.993 6.66865 20.1978 6.9838 20.3696 7.42501C20.499 7.75789 20.6532 8.25819 20.6951 9.18001C20.7404 10.1767 20.7503 10.4761 20.7503 12.9993C20.7503 15.5224 20.7404 15.8218 20.6951 16.8185C20.653 17.7403 20.499 18.2406 20.3696 18.5735C20.1982 19.0147 19.993 19.3289 19.6621 19.6596C19.3312 19.9905 19.017 20.1953 18.5756 20.3667C18.2427 20.4967 17.7421 20.6503 16.8203 20.6925C15.8236 20.7378 15.5243 20.7476 13 20.7476C10.4755 20.7476 10.1763 20.7378 9.17966 20.6925C8.25787 20.6499 7.75758 20.4959 7.42412 20.3665C6.98292 20.1951 6.66778 19.9903 6.33688 19.6594C6.00598 19.3285 5.80114 19.0141 5.62939 18.5727C5.49998 18.2398 5.34576 17.7395 5.30381 16.8177C5.25851 15.821 5.24945 15.5216 5.24945 12.9969C5.24945 10.4721 5.25851 10.1743 5.30381 9.17765C5.34596 8.25583 5.49998 7.75553 5.62939 7.42225C5.80075 6.98104 6.00598 6.66589 6.33688 6.33498C6.66778 6.00407 6.98292 5.79922 7.42412 5.62747C7.75739 5.49747 8.25787 5.34383 9.17966 5.30148C10.0518 5.26209 10.3898 5.25027 12.1518 5.2483V5.25066ZM18.0466 6.82051C17.4202 6.82051 16.9121 7.3281 16.9121 7.95466C16.9121 8.58103 17.4202 9.08921 18.0466 9.08921C18.6729 9.08921 19.1811 8.58103 19.1811 7.95466C19.1811 7.3283 18.6729 6.82012 18.0466 6.82012V6.82051ZM13 8.14612C10.3187 8.14612 8.14481 10.3201 8.14481 13.0014C8.14481 15.6828 10.3187 17.8557 13 17.8557C15.6812 17.8557 17.8543 15.6828 17.8543 13.0014C17.8543 10.3201 15.681 8.14612 12.9998 8.14612H13ZM13 9.84991C14.7403 9.84991 16.1514 11.2608 16.1514 13.0014C16.1514 14.7418 14.7403 16.1529 13 16.1529C11.2594 16.1529 9.84855 14.7418 9.84855 13.0014C9.84855 11.2608 11.2594 9.84991 13 9.84991V9.84991Z" fill="white"/>
</svg>
