<svg width="80" height="79" viewBox="0 0 80 79" fill="none" xmlns="http://www.w3.org/2000/svg">
    <path
        d="M33.9842 50.898C34.5849 50.898 34.999 51.4997 34.7828 52.0602C33.5683 55.2094 30.293 63.691 30.1159 64.0228C29.899 64.4286 29.1216 66.4563 27.0421 66.4563C19.628 66.4563 12.7921 64.7577 13.8563 59.0921C14.3575 56.4237 20.4219 50.8975 29.6758 50.8984L33.9842 50.898Z"
        fill="#3F88C5" />
    <path
        d="M46.0764 12.2871C67.0487 12.2871 67.9655 25.0212 65.3922 32.8358C61.765 43.851 48.7298 47.197 43.4518 47.0544H29.3294C19.5992 47.2113 14.8278 50.6462 13.2656 53.1254L25.3671 23.3093C29.2346 14.7629 33.6016 12.2871 46.0764 12.2871Z"
        fill="#3F88C5" />
</svg>