<svg width="26" height="26" viewBox="0 0 26 26" fill="none" xmlns="http://www.w3.org/2000/svg">
<path d="M16.0028 6.40743C13.9593 7.25741 9.87506 9.01665 3.75019 11.6852C2.7556 12.0807 2.2346 12.4676 2.18717 12.8459C2.10701 13.4853 2.90772 13.7371 3.99807 14.08L3.99814 14.08C4.14643 14.1266 4.30008 14.1749 4.45761 14.2261C5.53035 14.5748 6.97337 14.9828 7.72354 14.999C8.40401 15.0137 9.1635 14.7332 10.002 14.1574C15.7247 10.2944 18.6787 8.3419 18.8642 8.29981C18.995 8.27011 19.1763 8.23278 19.2992 8.34197C19.422 8.45116 19.41 8.65795 19.3969 8.71342C19.3176 9.05157 16.1747 11.9735 14.5481 13.4857L14.548 13.4858L14.5477 13.4861C14.0408 13.9574 13.6813 14.2917 13.6078 14.368C13.443 14.5391 13.2752 14.7009 13.1138 14.8564C12.1172 15.8172 11.3699 16.5376 13.1552 17.7141C14.0131 18.2795 14.6996 18.7469 15.3844 19.2133L15.3846 19.2135L15.385 19.2137C16.1329 19.723 16.8788 20.231 17.844 20.8637C18.0899 21.0249 18.3248 21.1923 18.5535 21.3554C19.424 21.976 20.2061 22.5336 21.1723 22.4446C21.7337 22.393 22.3136 21.8651 22.6081 20.2906C23.3041 16.5697 24.6723 8.50761 24.9885 5.18542C25.0162 4.89435 24.9813 4.52184 24.9533 4.35832C24.9254 4.1948 24.8669 3.96181 24.6543 3.78934C24.4026 3.58508 24.014 3.54201 23.8402 3.54507C23.0499 3.55899 21.8375 3.98056 16.0028 6.40743Z" fill="black"/>
</svg>
