<svg width="26" height="26" viewBox="0 0 26 26" fill="none" xmlns="http://www.w3.org/2000/svg">
<path d="M16.0028 6.40938C13.9593 7.25936 9.87506 9.01861 3.75019 11.6871C2.7556 12.0826 2.2346 12.4696 2.18717 12.8479C2.10701 13.4873 2.90772 13.7391 3.99807 14.0819L3.99814 14.0819C4.14643 14.1286 4.30008 14.1769 4.45761 14.2281C5.53035 14.5768 6.97337 14.9847 7.72354 15.001C8.40401 15.0157 9.1635 14.7351 10.002 14.1593C15.7247 10.2964 18.6787 8.34386 18.8642 8.30176C18.995 8.27207 19.1763 8.23473 19.2992 8.34392C19.422 8.45311 19.41 8.6599 19.3969 8.71537C19.3176 9.05352 16.1747 11.9755 14.5481 13.4877L14.548 13.4878L14.5477 13.4881C14.0408 13.9593 13.6813 14.2936 13.6078 14.37C13.443 14.541 13.2752 14.7029 13.1138 14.8584C12.1172 15.8191 11.3699 16.5396 13.1552 17.7161C14.0131 18.2814 14.6996 18.7489 15.3844 19.2153L15.3846 19.2154L15.385 19.2157C16.1329 19.725 16.8788 20.233 17.844 20.8656C18.0899 21.0268 18.3248 21.1943 18.5535 21.3574C19.424 21.978 20.2061 22.5355 21.1723 22.4466C21.7337 22.3949 22.3136 21.867 22.6081 20.2926C23.3041 16.5717 24.6723 8.50956 24.9885 5.18737C25.0162 4.89631 24.9813 4.5238 24.9533 4.36027C24.9254 4.19675 24.8669 3.96377 24.6543 3.79129C24.4026 3.58704 24.014 3.54396 23.8402 3.54702C23.0499 3.56094 21.8375 3.98252 16.0028 6.40938Z" fill="white"/>
</svg>
