<svg width="26" height="26" viewBox="0 0 26 26" fill="none" xmlns="http://www.w3.org/2000/svg">
<path d="M13 5.07812C13.0205 5.07813 19.8683 5.07883 21.583 5.54785C22.5226 5.80083 23.2636 6.54184 23.5166 7.48145C23.9864 9.19813 23.9688 12.7764 23.9688 12.7764C23.9687 12.8121 23.9661 16.3447 23.5166 18.0527C23.2636 18.9923 22.5226 19.7334 21.583 19.9863C19.8683 20.4373 13.0205 20.4375 13 20.4375C13 20.4375 6.15231 20.4375 4.41699 19.9678C3.47733 19.7148 2.73638 18.9738 2.4834 18.0342C2.03171 16.3355 2.03125 12.7578 2.03125 12.7578C2.03126 12.7263 2.03365 9.19048 2.4834 7.48145C2.73642 6.54185 3.49545 5.78325 4.41699 5.53027C6.13423 5.0786 13 5.07812 13 5.07812ZM10.8135 15.9209L16.5234 12.6328L10.8135 9.34375V15.9209Z" fill="black"/>
</svg>
